# xmcd CD database file
#
# Track frame offsets:
#	150
#	24521
#	43958
#	65085
#	82746
#	108415
#	126642
#	159207
#	182199
#	205121
#	230627
#	259778
#
# Disc length: 3591 seconds
#
# Revision: 0
# Processed by: cddbd v1.5.1PL0 Copyright (c) Steve Scherf et al.
# Submitted via: CDex 1.50
#
DISCID=a60e050c
DTITLE=Various Artist - Havana Latin Jazz
DYEAR=2004
DGENRE=Jazz
TTITLE0=Gabriel Hernandez - Son a Emiliano
TTITLE1=El Greco - Funk Blues (José M. Grego)
TTITLE2=Gabriel Hernandez - To Remember Black Bird
TTITLE3=Lazaro Dagoberto - Un Violin pa' Chano
TTITLE4=Irazu y Tata Guines - El punto
TTITLE5=Pucho Lopez - Playe ah
TTITLE6=NG la banda - All Of Me
TTITLE7=All Star - Manteca (with Tata Guines, congas, and Julio Padrón, trompeta)
TTITLE8=Pucho Lopez - The Lion's Hunter
TTITLE9=Irazu - Cubano
TTITLE10=Irazu - Rumberos de Irazu
TTITLE11=Tata Guines - Solo
EXTD=YEAR: 2004
EXTT0=
EXTT1=
EXTT2=
EXTT3=
EXTT4=
EXTT5=
EXTT6=
EXTT7=
EXTT8=
EXTT9=
EXTT10=
EXTT11=
PLAYORDER=
